# Blender v2.83.0 OBJ File: 'colored_sphere.blend'
# www.blender.org
mtllib colored_sphere.mtl
o Sphere
v 0.000000 0.980785 -0.195090
v 0.000000 0.831470 -0.555570
v 0.000000 0.555570 -0.831470
v 0.000000 0.195090 -0.980785
v 0.000000 -0.195090 -0.980785
v 0.000000 -0.831470 -0.555570
v 0.074658 0.980785 -0.180240
v 0.212608 0.831470 -0.513280
v 0.318190 0.555570 -0.768178
v 0.375330 0.195090 -0.906127
v 0.375330 -0.195090 -0.906127
v 0.318190 -0.555570 -0.768178
v 0.212608 -0.831470 -0.513280
v 0.074658 -0.980785 -0.180240
v 0.137950 0.980785 -0.137950
v 0.392848 0.831470 -0.392847
v 0.587938 0.555570 -0.587938
v 0.693520 0.195090 -0.693520
v 0.693520 -0.195090 -0.693520
v 0.587938 -0.555570 -0.587938
v 0.392848 -0.831470 -0.392847
v 0.137950 -0.980785 -0.137949
v 0.180240 0.980785 -0.074658
v 0.513280 0.831470 -0.212607
v 0.768178 0.555570 -0.318189
v 0.906128 0.195090 -0.375330
v 0.906128 -0.195090 -0.375330
v 0.768178 -0.555570 -0.318189
v 0.513280 -0.831470 -0.212607
v 0.180240 -0.980785 -0.074658
v 0.195091 0.980785 0.000000
v 0.555570 0.831470 0.000000
v 0.831470 0.555570 0.000000
v 0.980785 0.195090 0.000000
v 0.980785 -0.195090 0.000000
v 0.831470 -0.555570 0.000000
v 0.555570 -0.831470 0.000000
v 0.195090 -0.980785 0.000000
v 0.180240 0.980785 0.074658
v 0.513280 0.831470 0.212608
v 0.768178 0.555570 0.318190
v 0.906127 0.195090 0.375331
v 0.906127 -0.195090 0.375331
v 0.768178 -0.555570 0.318190
v 0.513280 -0.831470 0.212608
v 0.180240 -0.980785 0.074658
v 0.137950 0.980785 0.137950
v 0.392848 0.831470 0.392848
v 0.587938 0.555570 0.587938
v 0.693520 0.195090 0.693520
v 0.693520 -0.195090 0.693520
v 0.587938 -0.555570 0.587938
v 0.392848 -0.831470 0.392848
v 0.137950 -0.980785 0.137950
v 0.000000 -1.000000 0.000000
v 0.074658 0.980785 0.180240
v 0.212608 0.831470 0.513280
v 0.318190 0.555570 0.768178
v 0.375330 0.195090 0.906128
v 0.375330 -0.195090 0.906128
v 0.318190 -0.555570 0.768178
v 0.212608 -0.831470 0.513280
v 0.074658 -0.980785 0.180240
v -0.000000 0.980785 0.195091
v 0.000000 0.831470 0.555571
v -0.000000 0.555570 0.831470
v -0.000000 0.195090 0.980785
v -0.000000 -0.195090 0.980785
v -0.000000 -0.555570 0.831470
v -0.000000 -0.831470 0.555570
v 0.000000 -0.980785 0.195091
v -0.074658 0.980785 0.180240
v -0.212608 0.831470 0.513280
v -0.318190 0.555570 0.768178
v -0.375330 0.195090 0.906127
v -0.375330 -0.195090 0.906127
v -0.318190 -0.555570 0.768178
v -0.212608 -0.831470 0.513280
v -0.074658 -0.980785 0.180240
v -0.000000 1.000000 0.000001
v -0.137950 0.980785 0.137950
v -0.392848 0.831470 0.392848
v -0.587938 0.555570 0.587938
v -0.693520 0.195090 0.693520
v -0.693520 -0.195090 0.693520
v -0.587938 -0.555570 0.587938
v -0.392847 -0.831470 0.392848
v -0.137950 -0.980785 0.137950
v -0.180240 0.980785 0.074658
v -0.513280 0.831470 0.212608
v -0.768177 0.555570 0.318190
v -0.906127 0.195090 0.375330
v -0.906127 -0.195090 0.375330
v -0.768177 -0.555570 0.318190
v -0.513280 -0.831470 0.212608
v -0.180240 -0.980785 0.074658
v -0.195090 0.980785 0.000000
v -0.555570 0.831470 0.000000
v -0.831469 0.555570 0.000000
v -0.980785 0.195090 0.000000
v -0.980785 -0.195090 0.000000
v -0.831469 -0.555570 0.000000
v -0.555570 -0.831470 0.000000
v -0.195090 -0.980785 0.000000
v -0.180240 0.980785 -0.074658
v -0.513280 0.831470 -0.212607
v -0.768177 0.555570 -0.318189
v -0.906127 0.195090 -0.375330
v -0.906127 -0.195090 -0.375330
v -0.768177 -0.555570 -0.318189
v -0.513280 -0.831470 -0.212607
v -0.180240 -0.980785 -0.074657
v -0.137950 0.980785 -0.137949
v -0.392847 0.831470 -0.392847
v -0.587937 0.555570 -0.587937
v -0.693519 0.195090 -0.693519
v -0.693519 -0.195090 -0.693519
v -0.587937 -0.555570 -0.587937
v -0.392847 -0.831470 -0.392847
v -0.137950 -0.980785 -0.137949
v -0.074658 0.980785 -0.180240
v -0.212607 0.831470 -0.513280
v -0.318189 0.555570 -0.768177
v -0.375330 0.195090 -0.906127
v -0.375330 -0.195090 -0.906127
v -0.318189 -0.555570 -0.768177
v -0.212607 -0.831470 -0.513279
v -0.074658 -0.980785 -0.180240
v 0.000000 -0.555570 -0.831469
v 0.000000 -0.980785 -0.195090
vt 0.812500 0.812500
vt 0.750000 0.812500
vt 0.750000 0.687500
vt 0.812500 0.687500
vt 0.687500 0.812500
vt 0.750000 0.937500
vt 0.687500 0.937500
vt 0.625000 0.437500
vt 0.687500 0.437500
vt 0.687500 0.562500
vt 0.625000 0.562500
vt 0.640625 1.000000
vt 0.625000 0.937500
vt 0.687500 0.312500
vt 0.750000 0.312500
vt 0.750000 0.437500
vt 0.562500 0.062500
vt 0.625000 0.062500
vt 0.625000 0.187500
vt 0.562500 0.187500
vt 0.671875 0.000000
vt 0.687500 0.062500
vt 0.500000 0.187500
vt 0.562500 0.312500
vt 0.500000 0.312500
vt 0.500000 0.687500
vt 0.562500 0.687500
vt 0.562500 0.812500
vt 0.500000 0.812500
vt 0.437500 0.812500
vt 0.500000 0.937500
vt 0.437500 0.937500
vt 0.437500 0.312500
vt 0.500000 0.437500
vt 0.437500 0.437500
vt 0.375000 0.437500
vt 0.437500 0.562500
vt 0.375000 0.562500
vt 0.312500 0.562500
vt 0.375000 0.687500
vt 0.312500 0.687500
vt 0.390625 1.000000
vt 0.375000 0.937500
vt 0.421875 0.000000
vt 0.437500 0.062500
vt 0.375000 0.062500
vt 0.312500 0.062500
vt 0.375000 0.187500
vt 0.312500 0.187500
vt 0.250000 0.687500
vt 0.312500 0.812500
vt 0.250000 0.812500
vt 0.250000 0.187500
vt 0.312500 0.312500
vt 0.250000 0.312500
vt 0.187500 0.812500
vt 0.250000 0.937500
vt 0.187500 0.937500
vt 0.187500 0.312500
vt 0.250000 0.437500
vt 0.187500 0.437500
vt 0.125000 0.437500
vt 0.187500 0.562500
vt 0.125000 0.562500
vt 0.062500 0.562500
vt 0.125000 0.687500
vt 0.062500 0.687500
vt 0.140625 1.000000
vt 0.125000 0.937500
vt 0.171875 0.000000
vt 0.187500 0.062500
vt 0.125000 0.062500
vt 0.062500 0.062500
vt 0.125000 0.187500
vt 0.062500 0.187500
vt 0.000000 0.687500
vt 0.062500 0.812500
vt 1.000000 0.812500
vt 0.000000 0.187500
vt 0.062500 0.312500
vt 1.000000 0.312500
vt 0.937500 0.812500
vt 0.000000 0.812500
vt 1.000000 0.937500
vt 0.937500 0.937500
vt 0.875000 0.437500
vt 0.937500 0.437500
vt 0.937500 0.562500
vt 0.875000 0.562500
vt 0.937500 0.312500
vt 0.000000 0.312500
vt 1.000000 0.437500
vt 0.812500 0.562500
vt 0.875000 0.687500
vt 0.890625 1.000000
vt 0.875000 0.937500
vt 0.812500 0.062500
vt 0.875000 0.062500
vt 0.875000 0.187500
vt 0.812500 0.187500
vt 0.921875 0.000000
vt 0.937500 0.062500
vt 0.750000 0.187500
vt 0.812500 0.312500
vt 0.562500 0.562500
vt 0.625000 0.687500
vt 0.687500 0.687500
vt 0.687500 0.187500
vt 0.562500 0.437500
vt 0.578125 1.000000
vt 0.562500 0.937500
vt 0.500000 0.562500
vt 0.500000 0.062500
vt 0.609375 0.000000
vt 0.437500 0.187500
vt 0.437500 0.687500
vt 0.375000 0.812500
vt 0.375000 0.312500
vt 0.312500 0.437500
vt 0.328125 1.000000
vt 0.312500 0.937500
vt 0.250000 0.562500
vt 0.359375 0.000000
vt 0.250000 0.062500
vt 0.187500 0.687500
vt 0.187500 0.187500
vt 0.125000 0.812500
vt 0.125000 0.312500
vt 0.062500 0.437500
vt 0.000000 0.562500
vt 1.000000 0.687500
vt 0.078125 1.000000
vt 0.062500 0.937500
vt 0.109375 0.000000
vt 0.937500 0.687500
vt 0.000000 0.062500
vt 1.000000 0.187500
vt 0.937500 0.187500
vt 0.875000 0.812500
vt 0.812500 0.437500
vt 0.875000 0.312500
vt 0.828125 1.000000
vt 0.812500 0.937500
vt 0.750000 0.062500
vt 0.859375 0.000000
vt 0.750000 0.562500
vt 0.625000 0.812500
vt 0.625000 0.312500
vt 0.515625 1.000000
vt 0.546875 0.000000
vt 0.265625 1.000000
vt 0.296875 0.000000
vt 0.000000 0.437500
vt 1.000000 0.562500
vt 0.015625 1.000000
vt 0.000000 0.937500
vt 0.046875 0.000000
vt 0.796875 0.000000
vt 0.765625 1.000000
vt 0.453124 1.000000
vt 0.484375 0.000000
vt 0.203125 1.000000
vt 0.234375 0.000000
vt 0.953125 1.000000
vt 0.984375 0.000000
vt 1.000000 0.062500
vt 0.734375 0.000000
vt 0.703125 1.000000
vn -0.1393 0.7002 -0.7002
vn 0.0759 0.9212 -0.3816
vn 0.5556 0.0000 -0.8315
vn 0.0555 0.9950 -0.0831
vn 0.1807 -0.3764 -0.9087
vn 0.3235 -0.9212 -0.2161
vn 0.0555 -0.9950 -0.0831
vn 0.7002 -0.7002 -0.1393
vn 0.7002 0.7002 -0.1393
vn 0.3816 0.9212 0.0759
vn 0.9087 -0.3764 0.1807
vn 0.8315 0.0000 0.5556
vn 0.5147 0.3764 0.7703
vn 0.0831 0.9950 0.0555
vn 0.0831 -0.9950 0.0555
vn 0.2161 -0.9212 0.3235
vn 0.1393 0.7002 0.7002
vn 0.1393 -0.7002 0.7002
vn -0.0759 0.9212 0.3816
vn -0.1807 -0.3764 0.9087
vn -0.5556 0.0000 0.8315
vn -0.7703 0.3764 0.5147
vn -0.0555 0.9950 0.0831
vn -0.0555 -0.9950 0.0831
vn -0.3235 -0.9212 0.2161
vn -0.7002 0.7002 0.1393
vn -0.7002 -0.7002 0.1393
vn -0.3816 0.9212 -0.0759
vn -0.8315 0.0000 -0.5556
vn -0.9087 -0.3764 -0.1807
vn -0.5147 0.3764 -0.7703
vn -0.0831 0.9950 -0.0555
vn -0.2161 -0.9212 -0.3235
vn -0.0831 -0.9950 -0.0555
vn -0.1393 -0.7002 -0.7002
vn 0.7703 0.3764 -0.5147
vn 0.1393 0.7002 -0.7002
vn 0.1393 -0.7002 -0.7002
vn 0.8315 0.0000 -0.5556
vn 0.0831 0.9950 -0.0555
vn 0.9087 0.3764 -0.1807
vn 0.3816 -0.9212 -0.0759
vn 0.0831 -0.9950 -0.0555
vn 0.7002 -0.7002 0.1393
vn 0.7002 0.7002 0.1393
vn 0.3235 0.9212 0.2161
vn 0.7703 -0.3764 0.5147
vn 0.5556 0.0000 0.8315
vn 0.0555 0.9950 0.0831
vn 0.1807 0.3764 0.9087
vn 0.0555 -0.9950 0.0831
vn 0.0759 -0.9212 0.3816
vn -0.1393 0.7002 0.7002
vn -0.1393 -0.7002 0.7002
vn -0.2161 0.9212 0.3235
vn -0.5147 -0.3764 0.7703
vn -0.8315 0.0000 0.5556
vn -0.9087 0.3764 0.1807
vn -0.0831 0.9950 0.0555
vn -0.0831 -0.9950 0.0555
vn -0.7002 0.7002 -0.1393
vn -0.3816 -0.9212 0.0759
vn -0.7002 -0.7002 -0.1393
vn -0.3235 0.9212 -0.2161
vn -0.5556 0.0000 -0.8315
vn -0.7703 -0.3764 -0.5147
vn -0.0555 0.9950 -0.0831
vn -0.0759 -0.9212 -0.3816
vn -0.0555 -0.9950 -0.0831
vn -0.1807 0.3764 -0.9087
vn 0.2161 0.9212 -0.3235
vn 0.5147 -0.3764 -0.7703
vn 0.1807 0.3764 -0.9087
vn 0.3966 -0.7002 -0.5936
vn 0.3235 0.9212 -0.2161
vn 0.3966 0.7002 -0.5936
vn 0.7703 -0.3764 -0.5147
vn 0.9808 0.0000 -0.1951
vn 0.0980 0.9950 -0.0195
vn 0.9087 0.3764 0.1807
vn 0.3816 -0.9212 0.0759
vn 0.0980 -0.9950 -0.0195
vn 0.5936 0.7002 0.3966
vn 0.5936 -0.7002 0.3966
vn 0.2161 0.9212 0.3235
vn 0.5147 -0.3764 0.7703
vn 0.1951 0.0000 0.9808
vn 0.0195 0.9950 0.0980
vn -0.1807 0.3764 0.9087
vn 0.0195 -0.9950 0.0980
vn -0.0759 -0.9212 0.3816
vn -0.3966 0.7002 0.5936
vn -0.3966 -0.7002 0.5936
vn -0.3235 0.9212 0.2161
vn -0.9808 0.0000 0.1951
vn -0.7703 -0.3764 0.5147
vn -0.9087 0.3764 -0.1807
vn -0.0980 0.9950 0.0195
vn -0.3816 -0.9212 -0.0759
vn -0.0980 -0.9950 0.0195
vn -0.5936 -0.7002 -0.3966
vn -0.5936 0.7002 -0.3966
vn -0.2161 0.9212 -0.3235
vn -0.5147 -0.3764 -0.7703
vn -0.0195 -0.9950 -0.0980
vn -0.0195 0.9950 -0.0980
vn -0.1951 0.0000 -0.9808
vn 0.0759 -0.9212 -0.3816
vn 0.1951 0.0000 -0.9808
vn -0.0759 0.9212 -0.3816
vn 0.2161 -0.9212 -0.3235
vn 0.5936 -0.7002 -0.3966
vn 0.5936 0.7002 -0.3966
vn 0.3816 0.9212 -0.0759
vn 0.9087 -0.3764 -0.1807
vn 0.9808 0.0000 0.1951
vn 0.7703 0.3764 0.5147
vn 0.0980 0.9950 0.0195
vn 0.0980 -0.9950 0.0195
vn 0.3235 -0.9212 0.2161
vn 0.3966 0.7002 0.5936
vn 0.3966 -0.7002 0.5936
vn 0.0759 0.9212 0.3816
vn -0.1951 0.0000 0.9808
vn 0.1807 -0.3764 0.9087
vn -0.5147 0.3764 0.7703
vn -0.0195 0.9950 0.0980
vn -0.0195 -0.9950 0.0980
vn -0.2161 -0.9212 0.3235
vn -0.5936 0.7002 0.3966
vn -0.3816 0.9212 0.0759
vn -0.5936 -0.7002 0.3966
vn -0.9808 0.0000 -0.1951
vn -0.9087 -0.3764 0.1807
vn -0.7703 0.3764 -0.5147
vn -0.0980 0.9950 -0.0195
vn -0.3235 -0.9212 -0.2161
vn -0.0980 -0.9950 -0.0195
vn -0.3966 -0.7002 -0.5936
vn -0.3966 0.7002 -0.5936
vn -0.1807 -0.3764 -0.9087
vn 0.0195 -0.9950 -0.0980
vn 0.5147 0.3764 -0.7703
vn 0.0195 0.9950 -0.0980
usemtl Material.001
s off
f 122/1/1 2/2/1 3/3/1 123/4/1
f 8/5/2 2/2/2 1/6/2 7/7/2
f 19/8/3 11/9/3 10/10/3 18/11/3
f 80/12/4 15/13/4 7/7/4
f 12/14/5 129/15/5 5/16/5 11/9/5
f 30/17/6 22/18/6 21/19/6 29/20/6
f 55/21/7 14/22/7 22/18/7
f 37/23/8 29/20/8 28/24/8 36/25/8
f 33/26/9 25/27/9 24/28/9 32/29/9
f 40/30/10 32/29/10 31/31/10 39/32/10
f 44/33/11 36/25/11 35/34/11 43/35/11
f 51/36/12 43/35/12 42/37/12 50/38/12
f 59/39/13 50/38/13 49/40/13 58/41/13
f 80/42/14 47/43/14 39/32/14
f 55/44/15 46/45/15 54/46/15
f 63/47/16 54/46/16 53/48/16 62/49/16
f 66/50/17 58/41/17 57/51/17 65/52/17
f 70/53/18 62/49/18 61/54/18 69/55/18
f 73/56/19 65/52/19 64/57/19 72/58/19
f 77/59/20 69/55/20 68/60/20 76/61/20
f 85/62/21 76/61/21 75/63/21 84/64/21
f 92/65/22 84/64/22 83/66/22 91/67/22
f 80/68/23 81/69/23 72/58/23
f 55/70/24 79/71/24 88/72/24
f 96/73/25 88/72/25 87/74/25 95/75/25
f 99/76/26 91/67/26 90/77/26 98/78/26
f 103/79/27 95/75/27 94/80/27 102/81/27
f 106/82/28 98/83/28 97/84/28 105/85/28
f 117/86/29 109/87/29 108/88/29 116/89/29
f 110/90/30 102/91/30 101/92/30 109/87/30
f 124/93/31 116/89/31 115/94/31 123/4/31
f 80/95/32 113/96/32 105/85/32
f 128/97/33 120/98/33 119/99/33 127/100/33
f 55/101/34 112/102/34 120/98/34
f 6/103/35 127/100/35 126/104/35 129/15/35
f 26/105/36 18/11/36 17/106/36 25/27/36
usemtl Material.002
f 9/107/37 3/3/37 2/2/37 8/5/37
f 13/108/38 6/103/38 129/15/38 12/14/38
f 27/109/39 19/8/39 18/11/39 26/105/39
f 80/110/40 23/111/40 15/13/40
f 34/112/41 26/105/41 25/27/41 33/26/41
f 38/113/42 30/17/42 29/20/42 37/23/42
f 55/114/43 22/18/43 30/17/43
f 45/115/44 37/23/44 36/25/44 44/33/44
f 41/116/45 33/26/45 32/29/45 40/30/45
f 48/117/46 40/30/46 39/32/46 47/43/46
f 52/118/47 44/33/47 43/35/47 51/36/47
f 60/119/48 51/36/48 50/38/48 59/39/48
f 80/120/49 56/121/49 47/43/49
f 67/122/50 59/39/50 58/41/50 66/50/50
f 55/123/51 54/46/51 63/47/51
f 71/124/52 63/47/52 62/49/52 70/53/52
f 74/125/53 66/50/53 65/52/53 73/56/53
f 78/126/54 70/53/54 69/55/54 77/59/54
f 82/127/55 73/56/55 72/58/55 81/69/55
f 86/128/56 77/59/56 76/61/56 85/62/56
f 93/129/57 85/62/57 84/64/57 92/65/57
f 100/130/58 92/65/58 91/67/58 99/131/58
f 80/132/59 89/133/59 81/69/59
f 55/134/60 88/72/60 96/73/60
f 107/135/61 99/76/61 98/78/61 106/82/61
f 104/136/62 96/73/62 95/75/62 103/137/62
f 111/138/63 103/79/63 102/81/63 110/90/63
f 114/139/64 106/82/64 105/85/64 113/96/64
f 125/140/65 117/86/65 116/89/65 124/93/65
f 118/141/66 110/90/66 109/87/66 117/86/66
f 80/142/67 121/143/67 113/96/67
f 130/144/68 128/97/68 127/100/68 6/103/68
f 55/145/69 120/98/69 128/97/69
f 123/4/70 3/3/70 4/146/70 124/93/70
f 16/147/71 8/5/71 7/7/71 15/13/71
f 20/148/72 12/14/72 11/9/72 19/8/72
usemtl Material.003
f 10/10/73 4/146/73 3/3/73 9/107/73
f 21/19/74 13/108/74 12/14/74 20/148/74
f 24/28/75 16/147/75 15/13/75 23/111/75
f 17/106/76 9/107/76 8/5/76 16/147/76
f 28/24/77 20/148/77 19/8/77 27/109/77
f 35/34/78 27/109/78 26/105/78 34/112/78
f 80/149/79 31/31/79 23/111/79
f 42/37/80 34/112/80 33/26/80 41/116/80
f 46/45/81 38/113/81 37/23/81 45/115/81
f 55/150/82 30/17/82 38/113/82
f 49/40/83 41/116/83 40/30/83 48/117/83
f 53/48/84 45/115/84 44/33/84 52/118/84
f 57/51/85 48/117/85 47/43/85 56/121/85
f 61/54/86 52/118/86 51/36/86 60/119/86
f 68/60/87 60/119/87 59/39/87 67/122/87
f 80/151/88 64/57/88 56/121/88
f 75/63/89 67/122/89 66/50/89 74/125/89
f 55/152/90 63/47/90 71/124/90
f 79/71/91 71/124/91 70/53/91 78/126/91
f 83/66/92 74/125/92 73/56/92 82/127/92
f 87/74/93 78/126/93 77/59/93 86/128/93
f 90/77/94 82/127/94 81/69/94 89/133/94
f 101/153/95 93/129/95 92/65/95 100/154/95
f 94/80/96 86/128/96 85/62/96 93/129/96
f 108/88/97 100/130/97 99/131/97 107/135/97
f 80/155/98 97/156/98 89/133/98
f 112/102/99 104/136/99 103/137/99 111/138/99
f 55/157/100 96/73/100 104/136/100
f 119/99/101 111/138/101 110/90/101 118/141/101
f 115/94/102 107/135/102 106/82/102 114/139/102
f 122/1/103 114/139/103 113/96/103 121/143/103
f 126/104/104 118/141/104 117/86/104 125/140/104
f 55/158/105 128/97/105 130/144/105
f 80/159/106 1/6/106 121/143/106
f 124/93/107 4/146/107 5/16/107 125/140/107
f 14/22/108 130/144/108 6/103/108 13/108/108
usemtl Material.004
f 11/9/109 5/16/109 4/146/109 10/10/109
f 122/1/110 121/143/110 1/6/110 2/2/110
f 22/18/111 14/22/111 13/108/111 21/19/111
f 29/20/112 21/19/112 20/148/112 28/24/112
f 25/27/113 17/106/113 16/147/113 24/28/113
f 32/29/114 24/28/114 23/111/114 31/31/114
f 36/25/115 28/24/115 27/109/115 35/34/115
f 43/35/116 35/34/116 34/112/116 42/37/116
f 50/38/117 42/37/117 41/116/117 49/40/117
f 80/160/118 39/32/118 31/31/118
f 55/161/119 38/113/119 46/45/119
f 54/46/120 46/45/120 45/115/120 53/48/120
f 58/41/121 49/40/121 48/117/121 57/51/121
f 62/49/122 53/48/122 52/118/122 61/54/122
f 65/52/123 57/51/123 56/121/123 64/57/123
f 76/61/124 68/60/124 67/122/124 75/63/124
f 69/55/125 61/54/125 60/119/125 68/60/125
f 84/64/126 75/63/126 74/125/126 83/66/126
f 80/162/127 72/58/127 64/57/127
f 55/163/128 71/124/128 79/71/128
f 88/72/129 79/71/129 78/126/129 87/74/129
f 91/67/130 83/66/130 82/127/130 90/77/130
f 98/83/131 90/77/131 89/133/131 97/84/131
f 95/75/132 87/74/132 86/128/132 94/80/132
f 109/87/133 101/153/133 100/154/133 108/88/133
f 102/91/134 94/80/134 93/129/134 101/92/134
f 116/89/135 108/88/135 107/135/135 115/94/135
f 80/164/136 105/85/136 97/84/136
f 120/98/137 112/102/137 111/138/137 119/99/137
f 55/165/138 104/166/138 112/102/138
f 127/100/139 119/99/139 118/141/139 126/104/139
f 123/4/140 115/94/140 114/139/140 122/1/140
f 129/15/141 126/104/141 125/140/141 5/16/141
f 55/167/142 130/144/142 14/22/142
f 18/11/143 10/10/143 9/107/143 17/106/143
f 80/168/144 7/7/144 1/6/144
